<?xml version="1.0" encoding="utf-8"?>
<!-- Generator: Adobe Illustrator 16.0.0, SVG Export Plug-In . SVG Version: 6.00 Build 0)  -->
<!DOCTYPE svg PUBLIC "-//W3C//DTD SVG 1.1//EN" "http://www.w3.org/Graphics/SVG/1.1/DTD/svg11.dtd">
<svg version="1.1" id="medios_de_pago" xmlns="http://www.w3.org/2000/svg" xmlns:xlink="http://www.w3.org/1999/xlink" x="0px"
	 y="0px" width="200px" height="200px" viewBox="220 140 200 200" enable-background="new 220 140 200 200" xml:space="preserve">
<path fill="#009EE3" d="M269.867,227.2c0-2.267-1.867-4.134-4.133-4.134s-4.133,1.867-4.133,4.134c0,2.267,1.867,4.133,4.133,4.133
	C268,231.467,269.867,229.6,269.867,227.2z M262.8,227.2c0-1.6,1.333-2.8,2.8-2.8c1.6,0,2.8,1.333,2.8,2.8c0,1.6-1.333,2.8-2.8,2.8
	C264.133,230.133,262.8,228.8,262.8,227.2z M320,140c-55.2,0-100,44.8-100,100s44.8,100,100,100s100-44.8,100-100S375.2,140,320,140
	z M263.2,317.2l1.467-7.733l3.866,0.667l1.333,0.267l22.8,4.133L294,314.8l3.733,0.667l-1.6,8.533l-31.466-5.733
	C264.267,318,263.733,317.6,263.2,317.2z M265.2,277.866l0.267-8.8v-1.333L266,245.467c1.2-0.134,3.6-0.267,4.267-0.267l0,0
	c0.667,0,1.867,0.667,2.8,1.733c0.534,0.533,0.934,1.066,1.333,1.733c0.8,1.199,1.2,2.666,1.333,4.267v12.8
	c0,0.267,0.267,0.666,0.533,0.666c1.467,0.268,2.934,0.801,4.267,1.467c0.8,0.4,1.6,0.801,2.267,1.334
	c3.6,2.533,6,6.667,5.333,12.267c0,0.4,0.267,0.667,0.533,0.8c0.4,0,0.667-0.267,0.8-0.533c0.667-5.2-1.333-9.467-4.534-12.399
	h23.733c0,15.6-1.867,22.399-7.466,27.6c-1.333,1.199-2.934,2.133-4.534,2.933c-0.533,0.268-1.066,0.534-1.466,0.667
	c-7.467,3.066-16.667,2.134-23.067-2.8c-0.4-0.267-0.8-0.667-1.2-0.934l0,0C265.2,291.467,264.933,287.866,265.2,277.866z
	 M264.667,244.8l-0.534,22.399c-3.867-1.466-6.667-5.199-6.667-9.6v-59.866c0-5.733,4.667-10.267,10.267-10.267h5.333v57.866
	c-1.066-0.8-2.133-1.333-2.8-1.333l0,0c-0.667,0-4.267,0.267-4.934,0.267C264.933,244.133,264.667,244.533,264.667,244.8z
	 M274.4,246.533v-59.066h99.2V268h-90.266c-1.867-1.333-4-2.133-6.267-2.667v-12.267C277.066,250.533,275.867,248.133,274.4,246.533
	z M272,299.2c4.133,2.934,9.2,4.399,14.4,4.399c2.934,0,6-0.533,8.8-1.466l-2.134,11.333l-22.8-4.133L272,299.2z M267.6,320.267
	l29.066,5.334l0,0l1.733,0.267l-1.333,7.199C286.4,330.533,276.533,326.133,267.6,320.267z M320,335.867
	c-7.467,0-14.667-0.934-21.6-2.534l1.467-7.866c0-0.134,0-0.4-0.133-0.533c-0.133-0.134-0.267-0.267-0.4-0.267L297.6,324.4
	l1.733-9.2c0-0.134,0-0.4-0.133-0.533c-0.134-0.134-0.267-0.267-0.4-0.267l-4.4-0.801l2.267-12.133c2-0.934,4-2,5.733-3.467
	c6.533-6.133,7.867-14.533,7.867-28.533H376.4c6.399,0,11.732-5.2,11.732-11.733v-60c0-6.4-5.199-11.733-11.732-11.733H267.733
	c-6.4,0-11.733,5.2-11.733,11.733V257.6c0,5.201,3.333,9.6,8,11.067l-0.267,9.066c-0.267,9.733,0,14.267,6.267,19.866
	c0.267,0.134,0.4,0.4,0.667,0.533l-2,10.667l-4.533-0.8c-0.4,0-0.667,0.133-0.8,0.533l-1.467,7.733
	c-22.934-17.467-37.733-45.2-37.733-76.267c0-52.934,42.933-95.867,95.867-95.867S415.867,187.2,415.867,240
	C415.867,292.934,372.934,335.867,320,335.867z M375.066,268v-80.533h1.334c5.733,0,10.267,4.667,10.267,10.267V257.6
	c0,5.733-4.667,10.267-10.267,10.267h-1.334V268z M381.467,234.267c0.4,0,0.667-0.267,0.667-0.667v-12.667
	c0-0.4-0.267-0.667-0.667-0.667s-0.667,0.267-0.667,0.667V233.6C380.666,234,381.066,234.267,381.467,234.267z M327.866,220.4
	c-0.267-0.267-0.667-0.4-1.199-0.4c-0.4,0-0.8,0.267-1.2,0.533l-2.666,2.934c-0.134,0.133-0.4,0.133-0.534,0L320.8,222.4
	c-0.4-0.267-0.8-0.4-1.2-0.267s-0.8,0.267-1.067,0.667L318,223.6c-0.533,0.8-0.4,1.733,0.4,2.267l2.534,1.733c0,0,1.2,0.8,1.6,0.933
	c0.134,0,0.134,0,0.267,0c0.267,0,0.4,0,0.667,0C324,228.4,325.2,227.2,325.2,227.2l3.6-3.867c0.267-0.267,0.4-0.8,0.4-1.2
	s-0.267-0.8-0.533-1.2L327.866,220.4z M327.733,222.533l-3.601,3.867c-0.266,0.4-0.8,0.8-1.066,0.934c-0.133,0-0.266,0-0.266,0
	c-0.134,0-0.667-0.4-1.201-0.667l-2.533-1.733c-0.133-0.133-0.133-0.266,0-0.4l0.534-0.8c0-0.133,0.133-0.133,0.133-0.133l0,0h0.133
	l1.466,1.067c0.667,0.533,1.733,0.4,2.4-0.267l2.666-2.933c0.268-0.133,0.268-0.133,0.4-0.133c0,0,0.134,0,0.267,0.133l0.667,0.667
	c0.133,0.133,0.133,0.133,0.133,0.267C327.733,222.267,327.733,222.4,327.733,222.533z M344.4,233.6l-2.267,5.733h1.199l0.534-1.333
	h2.267l0.533,1.333h1.199L345.6,233.6H344.4z M344.267,236.934l0.8-2.134l0.801,2.134H344.267z M331.2,237.2h1.333v0.667
	c-0.133,0.133-0.399,0.267-0.666,0.4c-0.268,0.133-0.534,0.133-0.667,0.133c-0.534,0-0.934-0.133-1.2-0.533s-0.4-0.8-0.4-1.467
	s0.134-1.067,0.4-1.467c0.267-0.266,0.666-0.533,1.2-0.533c0.267,0,0.667,0.133,0.8,0.267c0.267,0.133,0.4,0.4,0.4,0.666l1.2-0.266
	c-0.134-0.534-0.4-0.934-0.8-1.2c-0.4-0.267-0.934-0.4-1.601-0.4c-0.534,0-0.934,0.133-1.334,0.267
	c-0.532,0.267-0.8,0.667-1.066,1.066c-0.267,0.4-0.399,0.934-0.399,1.6c0,0.534,0.133,1.067,0.399,1.467s0.534,0.8,1.066,1.066
	c0.4,0.267,0.934,0.4,1.601,0.4c0.533,0,0.934-0.133,1.334-0.267c0.399-0.133,0.8-0.4,1.066-0.667v-2.267h-2.534v1.067H331.2z
	 M324.4,236.8h2.799v-0.933H324.4v-1.2h3.066v-0.934H323.2v5.733h4.399v-0.934H324.4V236.8L324.4,236.8z M334.8,239.2h1.2v-5.733
	h-1.2V239.2z M318,234.533h1.733v4.8h1.2v-4.8h1.733V233.6h-4.534v0.933H318z M300.133,245.6v-1.333h3.333
	c3.6,6.533,11.6,12,19.866,13.733h0.134h0.134c8.267-1.601,16.266-7.2,19.866-13.733h4.399v1.333H359.6l-5.066-6.133l5.066-6.267
	h-8.267v-3.733c0-0.4-0.267-0.667-0.667-0.667H345.6c0-9.066,0-20.8,0-20.8v-0.667h-0.666c-13.733,0-20.801-7.867-20.934-8
	l-0.533-0.534l-0.533,0.534c-0.133,0.133-7.067,8-20.934,8h-0.667V208c0,0,0,11.733,0,20.8h-4c-0.4,0-0.667,0.267-0.667,0.667v3.733
	H288.4l5.067,6.267L288.4,245.6H300.133z M323.467,256.8c-7.6-1.6-14.934-6.533-18.4-12.399H342
	C338.4,250.134,331.066,255.2,323.467,256.8z M351.333,243.601V234.4h5.601l-4,4.934l4,4.933H349.2l0,0h1.466
	C351.066,244.267,351.333,244,351.333,243.601z M323.467,200.667c1.866,1.867,8.667,7.733,20.666,7.867c0,2.534,0,12.4,0,20.133
	H333.2c0.533-1.333,0.933-2.667,0.933-4.267c0-5.867-4.799-10.8-10.8-10.8c-5.866,0-10.8,4.8-10.8,10.8
	c0,1.467,0.267,2.934,0.934,4.267h-10.8c0-7.867,0-17.6,0-20.133C314.8,208.4,321.6,202.533,323.467,200.667z M332.801,224.533
	c0,1.467-0.4,2.934-1.067,4.267h-16.8c-0.667-1.333-1.066-2.667-1.066-4.267c0-5.2,4.267-9.466,9.466-9.466
	C328.667,215.067,332.801,219.333,332.801,224.533z M298,230.133h51.866v12.8H298V230.133z M291.067,234.533h5.6v9.2
	c0,0.399,0.267,0.667,0.667,0.667h1.466l0,0h-7.733l4-4.934L291.067,234.533z M310.267,237.2c-0.133-0.134-0.4-0.4-0.667-0.534
	c0.533-0.133,0.933-0.267,1.066-0.533c0.267-0.267,0.4-0.667,0.4-1.066s-0.133-0.667-0.267-0.934c-0.133-0.267-0.4-0.4-0.667-0.533
	s-0.667-0.133-1.333-0.133h-2.4v5.733h1.2v-2.4h0.267c0.267,0,0.4,0,0.533,0s0.267,0.134,0.4,0.267c0.133,0.133,0.267,0.4,0.667,0.8
	l0.8,1.2h1.333L310.934,238C310.667,237.733,310.4,237.333,310.267,237.2z M308.4,236h-0.8v-1.467h0.933c0.4,0,0.8,0,0.8,0
	c0.133,0,0.267,0.134,0.4,0.267c0.133,0.133,0.133,0.267,0.133,0.4c0,0.133,0,0.267-0.133,0.4s-0.133,0.133-0.267,0.267
	S309.066,236,308.4,236z M304.4,233.6c-0.267,0-0.667-0.133-1.333-0.133H301.2v5.733h1.2v-2.134h0.8c0.533,0,0.933,0,1.2-0.133
	c0.267,0,0.4-0.134,0.533-0.267c0.134-0.133,0.4-0.267,0.534-0.533c0.133-0.267,0.133-0.533,0.133-0.933
	c0-0.4-0.133-0.8-0.267-1.067C304.933,233.867,304.667,233.733,304.4,233.6z M304.133,235.733c0,0.133-0.133,0.267-0.267,0.267
	s-0.4,0.133-0.933,0.133h-0.667v-1.6h0.534c0.4,0,0.667,0,0.8,0s0.4,0.134,0.4,0.267c0.133,0.133,0.133,0.267,0.133,0.533
	C304.267,235.467,304.267,235.6,304.133,235.733z M314.667,233.467c-0.4,0-0.934,0.133-1.2,0.267s-0.533,0.267-0.8,0.533
	c-0.267,0.267-0.4,0.533-0.533,0.8C312,235.333,312,235.867,312,236.4c0,0.934,0.267,1.6,0.8,2.133c0.533,0.533,1.2,0.8,2,0.8
	c0.8,0,1.467-0.267,2-0.8c0.534-0.533,0.8-1.2,0.8-2.133c0-0.933-0.267-1.6-0.8-2.133
	C316.267,233.733,315.6,233.467,314.667,233.467z M315.867,237.867c-0.267,0.267-0.667,0.533-1.067,0.533
	c-0.4,0-0.8-0.133-1.2-0.533c-0.267-0.4-0.4-0.8-0.4-1.467s0.133-1.2,0.4-1.467c0.267-0.266,0.667-0.533,1.2-0.533
	s0.8,0.133,1.2,0.533c0.267,0.267,0.4,0.8,0.4,1.467C316.267,237.066,316.133,237.6,315.867,237.867z M341.066,234.133
	c-0.267-0.267-0.533-0.4-0.8-0.533s-0.667-0.133-1.066-0.133h-2.134v5.733h2.134c0.399,0,0.8,0,1.066-0.134
	c0.399-0.133,0.667-0.267,0.8-0.4c0.267-0.267,0.533-0.533,0.667-1.066c0.134-0.4,0.134-0.8,0.134-1.2c0-0.533,0-0.933-0.134-1.333
	C341.467,234.8,341.333,234.4,341.066,234.133z M340.4,237.467c-0.134,0.267-0.134,0.4-0.267,0.533
	c-0.134,0.133-0.268,0.133-0.4,0.267c-0.134,0-0.399,0-0.667,0h-0.8v-3.733h0.4c0.533,0,0.8,0,0.933,0
	c0.267,0,0.4,0.134,0.534,0.267c0.133,0.133,0.267,0.267,0.267,0.533c0.133,0.267,0.133,0.534,0.133,1.067
	C340.533,236.8,340.533,237.2,340.4,237.467z"/>
</svg>
