<svg xmlns="http://www.w3.org/2000/svg" width="75" height="75" viewBox="0 0 75 75"><path fill="#FFF" d="M68.008 7.51C67.125 4.284 65.05 1.866 62.165.7c-2.886-1.166-6.06-.868-8.935.839-2.914 1.73-5.305 4.748-6.912 8.728a24.354 24.354 0 0 0-1.269 4.204c-6.594.753-7.448 1.648-7.947 2.174L8.531 46.83c-2.791 2.947-2.663 7.618.286 10.41l16.632 15.744A7.336 7.336 0 0 0 30.511 75a7.397 7.397 0 0 0 5.349-2.302l28.572-30.183c.743-.786 2.257-2.396 1.813-22.503a16.9 16.9 0 0 0 .673-1.423c1.607-3.979 1.984-7.811 1.09-11.079zm-6.787 32.203l-28.453 30.06a3.084 3.084 0 0 1-2.257.97 3.088 3.088 0 0 1-2.135-.851L11.743 54.148a3.111 3.111 0 0 1-.12-4.393l28.455-30.061c.562-.272 2.085-.58 4.525-.877.005 1.101.094 2.175.291 3.199.368 1.907 1.05 3.543 1.999 4.847a4.989 4.989 0 0 0 1.179 5.563 5.004 5.004 0 0 0 3.452 1.375 5.041 5.041 0 0 0 3.646-1.57 4.987 4.987 0 0 0 1.373-3.59 4.992 4.992 0 0 0-1.566-3.509 5.004 5.004 0 0 0-3.453-1.375 5.036 5.036 0 0 0-2.933.956c-.522-.894-.921-1.958-1.157-3.186a14.91 14.91 0 0 1-.245-2.986c3.595-.339 8.483-.644 14.679-.837h.059c.367 13.146-.103 20.556-.706 22.009zm-10.77-10.022a7.837 7.837 0 0 0 2.497.554c.246 0 .466-.087.663-.209a2.417 2.417 0 0 1-2.085 1.18 2.424 2.424 0 0 1-2.421-2.25 7.78 7.78 0 0 0 1.346.725zm-.126-3.021a2.4 2.4 0 0 1 1.2-.329c.627 0 1.222.237 1.677.667.303.287.512.643.636 1.029a1.266 1.266 0 0 0-.801-.374 5.297 5.297 0 0 1-1.617-.369 5.237 5.237 0 0 1-1.095-.624zm15.034-11.581c-.756-1.019-1.974-1.641-3.452-1.641-.058 0-.113 0-.171.002-6.059.188-10.577.451-13.976.75a22.14 22.14 0 0 1 .956-2.964c2.695-6.672 7.827-10.018 12.48-8.139 4.055 1.639 5.611 6.385 4.163 11.992z"/></svg>