<?xml version="1.0" encoding="utf-8"?>
<!-- Generator: Adobe Illustrator 16.0.0, SVG Export Plug-In . SVG Version: 6.00 Build 0)  -->
<!DOCTYPE svg PUBLIC "-//W3C//DTD SVG 1.1//EN" "http://www.w3.org/Graphics/SVG/1.1/DTD/svg11.dtd">
<svg version="1.1" id="Layer_1" xmlns="http://www.w3.org/2000/svg" xmlns:xlink="http://www.w3.org/1999/xlink" x="0px" y="0px"
	 width="75px" height="75px" viewBox="0 0 75 75" enable-background="new 0 0 75 75" xml:space="preserve">
<path fill="#333333" d="M57.109,71.42H17.89c-1.064,0-1.927-0.863-1.927-1.928V32.889H6.331c-0.881,0-1.65-0.598-1.867-1.452
	L0.06,14.099c-0.252-0.994,0.318-2.012,1.298-2.315l26.283-8.119c0.184-0.057,0.376-0.085,0.569-0.085h0.119
	c0.846,0,1.592,0.551,1.841,1.358c0.983,3.222,3.962,5.418,7.331,5.405c3.368,0.014,6.348-2.183,7.33-5.405
	c0.249-0.807,0.996-1.357,1.841-1.358h0.12c0.192,0,0.384,0.029,0.567,0.085l26.283,8.119c0.979,0.303,1.551,1.32,1.299,2.315
	l-4.403,17.338c-0.218,0.854-0.985,1.452-1.867,1.452h-9.633v36.603C59.037,70.557,58.174,71.42,57.109,71.42L57.109,71.42z
	 M19.816,67.566h35.368V30.963c0-1.064,0.862-1.926,1.928-1.926h10.063l3.583-14.112L47.809,7.836
	c-1.926,3.869-5.863,6.359-10.309,6.359c-4.445,0-8.383-2.49-10.308-6.359L4.245,14.925l3.584,14.112H17.89
	c1.063,0,1.926,0.862,1.926,1.926V67.566L19.816,67.566z"/>
</svg>
