<svg xmlns="http://www.w3.org/2000/svg" width="75" height="75" viewBox="0 0 75 75"><path fill="#FFF" d="M37.5 7.309c-.34 0-.672.136-.912.376-.24.242-.378.574-.378.914 0 .338.138.672.378.912s.572.378.912.378c.339 0 .672-.138.913-.378.239-.241.377-.574.377-.912 0-.34-.138-.673-.377-.914a1.305 1.305 0 0 0-.913-.376zm-5.289 58.795h9.412a1.29 1.29 0 0 0 0-2.58h-9.412a1.29 1.29 0 0 0 0 2.58zM53.58 0H21.42c-4.519 0-8.196 3.677-8.196 8.196v58.607c0 4.52 3.676 8.197 8.196 8.197h32.16c4.52 0 8.195-3.678 8.195-8.198V8.196C61.775 3.677 58.1 0 53.58 0zm3.945 66.802a3.95 3.95 0 0 1-3.945 3.947H21.42a3.951 3.951 0 0 1-3.946-3.947V59.35h40.051v7.452zm0-11.702H17.474V16.64h40.051V55.1zm0-42.71H17.474V8.196A3.95 3.95 0 0 1 21.42 4.25h32.16a3.95 3.95 0 0 1 3.945 3.946v4.194z"/></svg>