<?xml version="1.0" encoding="utf-8"?>
<!-- Generator: Adobe Illustrator 16.0.0, SVG Export Plug-In . SVG Version: 6.00 Build 0)  -->
<!DOCTYPE svg PUBLIC "-//W3C//DTD SVG 1.1//EN" "http://www.w3.org/Graphics/SVG/1.1/DTD/svg11.dtd">
<svg version="1.1" id="Layer_1" xmlns="http://www.w3.org/2000/svg" xmlns:xlink="http://www.w3.org/1999/xlink" x="0px" y="0px"
	 width="75px" height="75px" viewBox="0 0 75 75" enable-background="new 0 0 75 75" xml:space="preserve">
<path fill="#333333" d="M54.838,75h-7.596c-1.169,0-2.117-0.946-2.118-2.115V55.486c0-1.732-1.337-3.139-2.979-3.139h-9.29
	c-1.644,0-2.98,1.405-2.98,3.139v17.397c0,1.169-0.947,2.115-2.115,2.115h-7.87c-4.924,0-8.93-4.004-8.93-8.929V40.09
	c-2.857-0.432-4.972-1.766-5.94-3.806c-0.641-1.353-1.278-4.162,1.673-7.777c0.03-0.038,0.063-0.074,0.095-0.11l22.766-24.26
	C31.757,1.468,34.575,0,37.499,0c2.926,0,5.743,1.468,7.944,4.136l22.767,24.26c0.033,0.036,0.065,0.072,0.097,0.11
	c2.95,3.614,2.314,6.424,1.674,7.777c-0.971,2.041-3.082,3.375-5.94,3.807v25.982C64.039,70.912,59.824,75,54.838,75z
	 M49.355,70.768h5.481c2.646,0,4.97-2.194,4.97-4.694V38.127c0-1.168,0.946-2.115,2.115-2.115c2.126,0,3.789-0.606,4.232-1.543
	c0.354-0.744-0.053-1.95-1.082-3.232L42.311,6.981c-0.033-0.036-0.064-0.072-0.096-0.11c-1.408-1.727-3.04-2.639-4.716-2.639
	c-1.675,0-3.304,0.912-4.715,2.639c-0.03,0.039-0.062,0.075-0.095,0.11L9.928,31.237c-1.032,1.283-1.437,2.488-1.083,3.232
	c0.445,0.938,2.105,1.542,4.232,1.542c1.169,0,2.116,0.947,2.116,2.115V66.07c0.004,2.594,2.105,4.693,4.698,4.695h5.752V55.486
	c0-4.064,3.235-7.369,7.212-7.369h9.29c3.978,0,7.213,3.305,7.213,7.369v15.281H49.355z"/>
</svg>
