<svg version="1" xmlns="http://www.w3.org/2000/svg" width="75" height="75" viewBox="0 0 75 75"><path fill="#FFF" d="M54.838 75h-7.596a2.117 2.117 0 0 1-2.118-2.115V55.486c0-1.732-1.337-3.139-2.979-3.139h-9.29c-1.644 0-2.98 1.406-2.98 3.139v17.398a2.115 2.115 0 0 1-2.115 2.115h-7.87c-4.924 0-8.93-4.004-8.93-8.928V40.09c-2.857-.432-4.972-1.766-5.94-3.806-.641-1.353-1.278-4.162 1.673-7.777.03-.038.063-.074.095-.11l22.766-24.26C31.757 1.468 34.575 0 37.499 0c2.926 0 5.743 1.468 7.945 4.136l22.766 24.26c.033.036.065.072.097.11 2.95 3.614 2.314 6.424 1.673 7.777-.97 2.041-3.082 3.375-5.94 3.807v25.982C64.039 70.912 59.824 75 54.838 75zm-5.482-4.232h5.481c2.646 0 4.969-2.195 4.969-4.695V38.127c0-1.168.947-2.115 2.116-2.115 2.126 0 3.789-.606 4.232-1.543.354-.744-.053-1.95-1.082-3.232L42.311 6.981a2.518 2.518 0 0 1-.096-.11c-1.409-1.727-3.04-2.639-4.716-2.639-1.675 0-3.304.912-4.715 2.639a1.25 1.25 0 0 1-.095.11L9.928 31.237c-1.032 1.283-1.437 2.488-1.083 3.232.445.937 2.105 1.542 4.232 1.542 1.169 0 2.116.947 2.116 2.115v27.945a4.702 4.702 0 0 0 4.698 4.695h5.752v-15.28c0-4.064 3.235-7.369 7.212-7.369h9.29c3.977 0 7.212 3.305 7.212 7.369v15.282z"/></svg>