<svg xmlns="http://www.w3.org/2000/svg" width="75" height="75" viewBox="0 0 75 75"><path fill="#FFF" d="M58.889 10.348c-2.009-3.152-4.675-5.627-7.925-7.356C47.232 1.006 42.703 0 37.5 0c-9.956 0-17.134 3.044-21.337 9.047-2.939 4.199-4.368 9.747-4.368 16.962 0 16.366 22.679 46.854 23.645 48.144a2.113 2.113 0 0 0 1.691.847h.017a2.118 2.118 0 0 0 1.695-.875c.06-.083 6.109-8.464 12.076-18.333 8.149-13.485 12.285-23.263 12.285-29.062 0-3.586-.561-10.483-4.315-16.382zM37.114 69.262c-2.14-3.006-5.987-8.588-9.799-14.984-7.389-12.399-11.294-22.174-11.294-28.268 0-9.351 2.227-21.784 21.479-21.784 19.385 0 21.479 15.738 21.479 22.505 0 9.348-14.478 31.972-21.865 42.531zm.386-55.744c-6.652 0-12.064 5.412-12.064 12.064S30.848 37.646 37.5 37.646s12.064-5.412 12.064-12.064S44.152 13.518 37.5 13.518zm0 21.562c-5.237 0-9.499-4.261-9.499-9.498s4.262-9.499 9.499-9.499c5.238 0 9.498 4.262 9.498 9.499s-4.26 9.498-9.498 9.498z"/></svg>