<?xml version="1.0" encoding="utf-8"?>
<!-- Generator: Adobe Illustrator 16.0.0, SVG Export Plug-In . SVG Version: 6.00 Build 0)  -->
<!DOCTYPE svg PUBLIC "-//W3C//DTD SVG 1.1//EN" "http://www.w3.org/Graphics/SVG/1.1/DTD/svg11.dtd">
<svg version="1.1" id="Layer_1" xmlns="http://www.w3.org/2000/svg" xmlns:xlink="http://www.w3.org/1999/xlink" x="0px" y="0px"
	 width="75px" height="75px" viewBox="0 0 75 75" enable-background="new 0 0 75 75" xml:space="preserve">
<path fill="#333333" d="M60.292,30.252c-0.026-1.475-0.135-4.035-0.541-5.268L55.656,5.507C55.536,2.435,53.013,0.004,49.938,0
	H24.636c-3.077,0.003-5.602,2.437-5.717,5.512l-3.354,16.333c-0.595,1.857-0.783,6.015-0.827,7.271
	c-0.054,1.511-0.053,2.877,0.003,3.949c0.067,1.306,0.203,2.092,0.488,2.642c2.029,6.789,8.638,12.688,16.454,14.807v14.594H26.32
	c-2.596,0-4.475,2.914-4.475,4.879c0,1.723,1.744,5.015,4.475,5.015h22.36c2.73,0,4.473-3.292,4.475-5.015
	c0-1.965-1.879-4.879-4.475-4.879h-5.172V50.5c3.524-0.99,6.797-2.723,9.596-5.081c3.338-2.821,5.65-6.271,6.705-9.99
	C60.096,34.855,60.355,33.648,60.292,30.252z M56.387,33.791c-0.063,0.12-0.111,0.246-0.146,0.377
	c-1.634,6.166-7.802,11.512-15.003,13c-0.876,0.182-1.505,0.953-1.506,1.848v17.979c0,1.042,0.847,1.887,1.889,1.887h7.001
	c0.255,0.127,0.68,0.753,0.753,1.108c-0.068,0.361-0.493,1.068-0.779,1.236H26.405c-0.287-0.168-0.711-0.875-0.78-1.237
	c0.073-0.355,0.498-0.981,0.753-1.108h7.192c1.042,0,1.887-0.845,1.887-1.887l0,0V49.023c0-0.896-0.631-1.67-1.509-1.85
	c-7.127-1.458-13.504-6.822-15.164-12.76c-0.04-0.143-0.097-0.28-0.168-0.41c-0.338-1.577-0.047-9.35,0.553-11.038
	c0.029-0.082,0.052-0.167,0.07-0.252L22.65,6.101c0.025-0.125,0.038-0.252,0.038-0.38c0.001-1.075,0.873-1.946,1.948-1.947h25.303
	c1.074,0,1.947,0.873,1.947,1.947c0,0.131,0.014,0.261,0.039,0.389l4.157,19.776c0.022,0.11,0.058,0.219,0.101,0.323
	C56.514,27.258,56.648,32.569,56.387,33.791z M21.126,27.815c0,0-0.128,5.518,0.207,5.847c1.567,5.605,7.364,11.095,16.166,11.095
	c8.801,0,14.683-5.61,16.192-11.31c0.324-0.387,0.156-5.632,0.156-5.632C37.945,22.299,40.102,33.53,21.126,27.815z"/>
</svg>
