<svg xmlns="http://www.w3.org/2000/svg" width="75" height="75" viewBox="0 0 75 75"><path fill="#FFF" d="M60.292 30.252c-.026-1.475-.135-4.035-.541-5.268L55.656 5.507A5.73 5.73 0 0 0 49.938 0H24.636a5.727 5.727 0 0 0-5.717 5.512l-3.354 16.333c-.595 1.857-.783 6.015-.827 7.271-.054 1.511-.053 2.877.003 3.949.067 1.306.203 2.092.488 2.642 2.029 6.789 8.638 12.688 16.454 14.807v14.594H26.32c-2.596 0-4.475 2.914-4.475 4.879 0 1.722 1.744 5.014 4.475 5.014h22.36c2.73 0 4.473-3.292 4.475-5.014 0-1.965-1.879-4.879-4.475-4.879h-5.172V50.5a25.664 25.664 0 0 0 9.596-5.081c3.338-2.821 5.65-6.271 6.705-9.99.287-.574.546-1.781.483-5.177zm-3.905 3.539a1.795 1.795 0 0 0-.146.377c-1.633 6.166-7.801 11.512-15.002 13a1.888 1.888 0 0 0-1.506 1.848v17.979c0 1.042.846 1.887 1.888 1.887h7.001c.255.127.68.753.753 1.108-.069.361-.493 1.068-.78 1.236h-22.19c-.287-.168-.711-.875-.78-1.237.073-.355.498-.981.753-1.108h7.192a1.887 1.887 0 0 0 1.887-1.887V49.023c0-.896-.631-1.67-1.509-1.849-7.127-1.458-13.504-6.823-15.164-12.76a1.931 1.931 0 0 0-.168-.41c-.338-1.577-.047-9.35.553-11.038.029-.082.052-.167.07-.252L22.65 6.101c.025-.125.038-.252.038-.38a1.95 1.95 0 0 1 1.948-1.947h25.303c1.074 0 1.947.873 1.947 1.947 0 .131.014.261.04.389l4.157 19.776c.023.11.057.219.1.323.331 1.049.465 6.36.204 7.582zm-35.261-5.976s-.128 5.518.207 5.847c1.567 5.605 7.364 11.095 16.166 11.095 8.801 0 14.683-5.61 16.192-11.31.324-.387.156-5.632.156-5.632-15.902-5.516-13.745 5.715-32.721 0z"/></svg>