<?xml version="1.0" encoding="utf-8"?>
<!-- Generator: Adobe Illustrator 16.0.0, SVG Export Plug-In . SVG Version: 6.00 Build 0)  -->
<!DOCTYPE svg PUBLIC "-//W3C//DTD SVG 1.1//EN" "http://www.w3.org/Graphics/SVG/1.1/DTD/svg11.dtd">
<svg version="1.1" id="Layer_1" xmlns="http://www.w3.org/2000/svg" xmlns:xlink="http://www.w3.org/1999/xlink" x="0px" y="0px"
	 width="75px" height="75px" viewBox="0 0 75 75" enable-background="new 0 0 75 75" xml:space="preserve">
<path fill="#333333" d="M68.008,7.51c-0.883-3.226-2.958-5.644-5.843-6.81c-2.886-1.166-6.06-0.868-8.935,0.839
	c-2.914,1.73-5.306,4.748-6.912,8.728c-0.549,1.36-0.974,2.767-1.27,4.204c-6.594,0.753-7.448,1.648-7.947,2.174L8.531,46.83
	c-2.791,2.947-2.663,7.618,0.286,10.41l16.632,15.744c1.366,1.297,3.178,2.019,5.062,2.016c2.022-0.004,3.956-0.836,5.349-2.302
	l28.572-30.183c0.743-0.787,2.258-2.396,1.813-22.503c0.246-0.464,0.471-0.938,0.673-1.423C68.525,14.61,68.902,10.778,68.008,7.51z
	 M61.221,39.713L32.768,69.773c-0.585,0.621-1.403,0.973-2.257,0.97c-0.795,0.001-1.56-0.304-2.135-0.851L11.743,54.148
	c-1.245-1.182-1.298-3.146-0.12-4.394l28.455-30.061c0.563-0.272,2.085-0.58,4.525-0.877c0.004,1.101,0.094,2.175,0.291,3.199
	c0.367,1.907,1.049,3.543,1.998,4.847c-0.805,1.919-0.336,4.136,1.18,5.563c0.932,0.885,2.168,1.377,3.451,1.375
	c1.379-0.002,2.697-0.57,3.646-1.57c0.919-0.965,1.414-2.258,1.373-3.59c-0.033-1.332-0.597-2.595-1.566-3.509
	c-0.932-0.884-2.168-1.377-3.453-1.375c-1.053,0.004-2.078,0.338-2.933,0.956c-0.522-0.894-0.921-1.958-1.157-3.186
	c-0.182-0.984-0.264-1.985-0.244-2.986c3.595-0.339,8.482-0.644,14.679-0.837h0.06C62.294,30.85,61.824,38.26,61.221,39.713
	L61.221,39.713z M50.451,29.691c0.797,0.32,1.64,0.507,2.497,0.554c0.245,0,0.466-0.087,0.663-0.209
	c-0.438,0.734-1.23,1.183-2.086,1.18c-1.271,0.002-2.329-0.98-2.42-2.25C49.529,29.251,49.979,29.494,50.451,29.691z M50.325,26.67
	c0.364-0.213,0.778-0.327,1.2-0.329c0.627,0,1.222,0.237,1.677,0.667c0.303,0.287,0.512,0.643,0.636,1.029
	c-0.213-0.217-0.498-0.35-0.801-0.374c-0.555-0.038-1.101-0.162-1.617-0.369C51.031,27.131,50.664,26.921,50.325,26.67z
	 M65.359,15.089c-0.756-1.019-1.975-1.641-3.452-1.641c-0.058,0-0.113,0-0.171,0.002c-6.059,0.188-10.577,0.451-13.977,0.75
	c0.249-1.009,0.568-2,0.956-2.964c2.695-6.672,7.827-10.018,12.479-8.139C65.251,4.736,66.807,9.482,65.359,15.089z"/>
</svg>
