<?xml version="1.0" encoding="utf-8"?>
<!-- Generator: Adobe Illustrator 16.0.0, SVG Export Plug-In . SVG Version: 6.00 Build 0)  -->
<!DOCTYPE svg PUBLIC "-//W3C//DTD SVG 1.1//EN" "http://www.w3.org/Graphics/SVG/1.1/DTD/svg11.dtd">
<svg version="1.1" id="Layer_1" xmlns="http://www.w3.org/2000/svg" xmlns:xlink="http://www.w3.org/1999/xlink" x="0px" y="0px"
	 width="75px" height="75px" viewBox="0 0 75 75" enable-background="new 0 0 75 75" xml:space="preserve">
<path fill="#333333" d="M58.889,10.348c-2.009-3.152-4.675-5.627-7.925-7.356C47.232,1.006,42.481,0,37.278,0
	c-9.956,0-16.912,3.044-21.115,9.047c-2.939,4.199-4.368,10.108-4.368,17.323c0,16.366,22.679,46.493,23.645,47.782
	C35.839,74.686,36.613,75,37.278,75c0.672-0.006,1.171-0.331,1.564-0.875c0.06-0.083,6.109-8.464,12.076-18.333
	c8.149-13.485,12.285-23.623,12.285-29.422C63.204,22.784,62.643,16.247,58.889,10.348z M37.278,69.262
	c-2.14-3.006-6.151-8.588-9.963-14.984C19.926,41.879,16.021,32.464,16.021,26.37c0-9.351,2.005-22.144,21.257-22.144
	c19.385,0,21.7,15.376,21.7,22.144C58.979,35.718,44.666,58.703,37.278,69.262z M37.5,14.306c-6.652,0-12.064,5.412-12.064,12.064
	S30.848,38.435,37.5,38.435c6.652,0,12.064-5.413,12.064-12.064S44.152,14.306,37.5,14.306z M37.5,35.868
	c-5.237,0-9.499-4.261-9.499-9.498c0-5.237,4.262-9.499,9.499-9.499c5.238,0,9.498,4.262,9.498,9.499
	C46.998,31.607,42.738,35.868,37.5,35.868z"/>
</svg>
