<svg xmlns="http://www.w3.org/2000/svg" width="75" height="75" viewBox="0 0 75 75"><path fill="#FFF" d="M57.109 71.42H17.89a1.928 1.928 0 0 1-1.927-1.928V32.889H6.331c-.881 0-1.65-.598-1.867-1.452L.06 14.099a1.927 1.927 0 0 1 1.298-2.315l26.283-8.119c.184-.057.376-.085.569-.085h.119c.846 0 1.592.551 1.841 1.358a7.633 7.633 0 0 0 7.331 5.405 7.63 7.63 0 0 0 7.33-5.405 1.928 1.928 0 0 1 1.841-1.358h.12c.192 0 .384.029.567.085l26.283 8.119a1.928 1.928 0 0 1 1.299 2.315l-4.403 17.338a1.927 1.927 0 0 1-1.867 1.452h-9.633v36.603a1.929 1.929 0 0 1-1.929 1.928zm-37.293-3.854h35.368V30.963c0-1.064.862-1.926 1.928-1.926h10.062l3.583-14.112-22.948-7.089c-1.926 3.869-5.863 6.359-10.309 6.359-4.445 0-8.383-2.49-10.308-6.359L4.245 14.925l3.584 14.112H17.89c1.063 0 1.926.862 1.926 1.926v36.603z"/></svg>