<?xml version="1.0" encoding="utf-8"?>
<!-- Generator: Adobe Illustrator 16.0.0, SVG Export Plug-In . SVG Version: 6.00 Build 0)  -->
<!DOCTYPE svg PUBLIC "-//W3C//DTD SVG 1.1//EN" "http://www.w3.org/Graphics/SVG/1.1/DTD/svg11.dtd">
<svg version="1.1" id="medios_de_pago" xmlns="http://www.w3.org/2000/svg" xmlns:xlink="http://www.w3.org/1999/xlink" x="0px"
	 y="0px" width="200px" height="200.032px" viewBox="0 0 200 200.032" enable-background="new 0 0 200 200.032"
	 xml:space="preserve">
<path id="bg" fill-rule="evenodd" clip-rule="evenodd" fill="#FFFFFF" d="M193.446,129.352
	C209.65,77.751,180.948,22.787,129.34,6.585C77.73-9.615,22.759,19.08,6.554,70.682c-16.203,51.6,12.498,106.563,64.106,122.766
	C122.27,209.647,177.242,180.952,193.446,129.352z"/>
<path id="shape" fill="#009EE3" d="M115.79,86.429h-9.287c-0.51,0-0.922,0.413-0.922,0.922c0,0.51,0.412,0.922,0.922,0.922h9.287
	c0.509,0,0.922-0.412,0.922-0.922C116.712,86.842,116.299,86.429,115.79,86.429z M96.87,40.705l-12.837-1.401
	c-0.385-0.032-0.729,0.236-0.771,0.619c-0.042,0.384,0.235,0.73,0.62,0.771l12.837,1.402c0.026,0.003,0.051,0.004,0.077,0.004
	c0.352,0,0.656-0.266,0.695-0.623C97.531,41.093,97.254,40.747,96.87,40.705z M155.575,94.548l3.238-4.608h-2.991l-1.714,2.569
	l-1.733-2.569h-3.085l3.237,4.664l-3.542,5.182h3.029l2.057-3.104l2.057,3.104h3.085L155.575,94.548z M151.418,75.261V58.553
	c0-2.777-2.259-5.034-5.036-5.034h-32.54l0.586-5.366l0.32-2.938c0.208-1.9-0.338-3.767-1.534-5.257
	c-1.197-1.49-2.903-2.425-4.804-2.632l-34.92-3.813c-3.978-0.443-7.465,2.442-7.891,6.337l-6.319,57.881l-9.906,42.254
	c-2.52,10.848-3.42,15.986,1.676,23.436c0.009,0.017,0.009,0.036,0.021,0.055l0.704,1.141c1.277,1.873,2.794,3.551,4.48,5.03
	l-1.067,6.997l-6.003-0.909c-0.246-0.041-0.488,0.025-0.686,0.169c-0.197,0.145-0.328,0.362-0.365,0.604l-0.911,6.005
	c0.565,0.362,1.129,0.722,1.703,1.072l0.893-5.889l5.09,0.771l1.824,0.277l26.909,4.081l1.824,0.277l3.571,0.541l-2.036,13.422
	c0.61,0.084,1.221,0.164,1.831,0.236l2.168-14.294c0.037-0.242-0.025-0.489-0.169-0.687c-0.146-0.195-0.362-0.328-0.604-0.363
	l-4.482-0.679l0.942-6.177c0.041-0.016,0.08-0.037,0.122-0.054c0.215-0.087,0.426-0.188,0.64-0.28
	c0.314-0.138,0.633-0.264,0.942-0.416c1.079-0.527,2.047-1.065,2.927-1.624c0.01-0.007,0.023-0.013,0.035-0.022
	c0.177-0.113,0.338-0.23,0.509-0.345c2.893-1.934,4.734-4.105,6.132-6.969c1.494-3.021,2.489-6.757,3.71-11.668l1.913-7.706
	l7.53-30.056c0.05-0.199,0.002-0.396-0.105-0.555c-0.077-0.154-0.208-0.278-0.379-0.342c-0.453-0.168-2.028-0.702-3.413-1.157
	l2.282-20.902h15.536c0.011,10.546,8.595,19.123,19.146,19.123c10.558,0,19.147-8.587,19.147-19.143
	C163.361,84.979,158.413,78.113,151.418,75.261z M146.382,54.916c2.005,0,3.637,1.631,3.637,3.637v3.015H93.174v-3.015
	c0-2.006,1.632-3.637,3.637-3.637H146.382z M150.019,62.966v7.274H93.174v-7.274H150.019z M66.992,40.003
	c0.319-2.926,2.776-5.133,5.715-5.133c0.209,0,0.42,0.012,0.631,0.034l34.921,3.813c1.528,0.167,2.9,0.918,3.864,2.117
	c0.963,1.199,1.401,2.701,1.234,4.229l-0.244,2.235l-46.347-5.238L66.992,40.003z M58.439,118.349l0.53-4.856l37.645,4.108
	c-0.889,1.102-1.61,2.382-2.014,3.821l-1.814,6.465l-29.248-3.191c-1.529-0.167-2.902-0.918-3.865-2.117
	S58.272,119.877,58.439,118.349z M83.921,181.001l-26.908-4.08l0.902-5.916c0.632,0.474,1.289,0.914,1.958,1.335
	c0.057,0.036,0.115,0.07,0.172,0.106c0.626,0.39,1.267,0.757,1.921,1.099c0.053,0.027,0.104,0.058,0.158,0.085
	c0.709,0.366,1.432,0.707,2.169,1.017c0.002,0,0.004,0.002,0.005,0.003c0.687,0.289,1.386,0.546,2.092,0.784
	c0.143,0.048,0.285,0.096,0.429,0.142c0.654,0.21,1.315,0.401,1.982,0.569c0.071,0.017,0.141,0.038,0.212,0.056
	c0.729,0.178,1.466,0.324,2.206,0.449c0.164,0.027,0.327,0.047,0.491,0.072c0.577,0.087,1.156,0.158,1.735,0.212
	c0.208,0.02,0.415,0.039,0.622,0.056c0.705,0.05,1.41,0.084,2.116,0.086c0.027,0,0.054,0.003,0.081,0.003
	c0.053,0,0.106-0.005,0.159-0.005c0.58-0.004,1.157-0.029,1.734-0.065c0.194-0.012,0.387-0.03,0.581-0.046
	c0.512-0.044,1.021-0.102,1.53-0.172c0.127-0.017,0.253-0.032,0.379-0.051c0.663-0.102,1.322-0.227,1.977-0.375
	c0.026-0.006,0.051-0.013,0.077-0.02c0.621-0.143,1.237-0.313,1.847-0.5c0.055-0.017,0.111-0.027,0.166-0.044L83.921,181.001z
	 M109.576,116.216l-7.258,29.228l-2.001,7.989c-2.928,11.668-4.551,15.77-12.609,19.686c-0.333,0.16-0.678,0.286-1.016,0.433
	c-0.554,0.239-1.113,0.469-1.682,0.666c-0.189,0.065-0.383,0.119-0.574,0.182c-0.805,0.258-1.62,0.475-2.445,0.654
	c-0.206,0.043-0.411,0.093-0.618,0.133c-0.451,0.085-0.903,0.158-1.357,0.222c-0.209,0.027-0.418,0.051-0.627,0.074
	c-1.496,0.172-3.005,0.222-4.513,0.149c-0.211-0.009-0.422-0.02-0.633-0.033c-0.461-0.031-0.922-0.072-1.381-0.125
	c-0.195-0.022-0.389-0.054-0.584-0.08c-0.897-0.125-1.79-0.289-2.672-0.493c-0.144-0.034-0.29-0.062-0.433-0.097
	c-0.444-0.11-0.886-0.238-1.325-0.368c-0.22-0.066-0.439-0.136-0.658-0.206c-0.438-0.141-0.873-0.286-1.303-0.447
	c-0.126-0.049-0.251-0.104-0.378-0.152c-0.856-0.336-1.694-0.714-2.514-1.128c-0.172-0.087-0.346-0.171-0.516-0.261
	c-0.413-0.22-0.818-0.45-1.219-0.688c-0.172-0.103-0.341-0.21-0.511-0.315c-0.896-0.561-1.765-1.164-2.59-1.821
	c-0.57-0.456-1.116-0.94-1.647-1.441c-1.301-1.229-2.491-2.578-3.512-4.069l-0.708-1.144c-4.671-6.775-4.207-11.037-1.552-22.459
	l7.338-31.533l-1.029,9.429c-0.208,1.899,0.337,3.766,1.534,5.257c1.197,1.489,2.903,2.425,4.803,2.632l28.988,3.164l-1.736,6.234
	c-2.977-0.17-6.016,0.299-8.789,1.389c-5.314,2.078-9.641,6.483-10.55,13.311c-0.04,0.293,0.111,0.563,0.356,0.7
	c0.08,0.05,0.17,0.082,0.269,0.095c0.4,0.061,0.734-0.219,0.784-0.603c0.673-5.123,3.306-8.66,6.762-10.831
	c3.438-2.147,7.685-2.943,11.634-2.594c0.327,0.013,0.644-0.186,0.735-0.508l1.975-7.037l0.382-1.366l1.752-6.239
	c0.441-1.577,1.314-2.924,2.355-4.015c0.446-0.469,0.922-0.885,1.41-1.254c1.959-1.489,4.088-2.179,5.064-1.904
	c0.179,0.05,0.526,0.159,0.955,0.297c0.399,0.13,0.868,0.283,1.359,0.447C107.989,115.671,108.935,115.993,109.576,116.216z
	 M105.886,113.507c-0.313-0.101-0.584-0.187-0.733-0.227c-1.661-0.461-4.846,0.695-7.348,3.043l-38.684-4.222l7.494-68.651
	l46.347,5.238l-0.526,4.83H96.811c-2.776,0-5.036,2.257-5.036,5.034v29.418c0,2.776,2.259,5.035,5.036,5.035h11.314L105.886,113.507
	z M96.811,91.607c-2.005,0-3.637-1.632-3.637-3.637V71.639h56.844v3.108c-1.833-0.583-3.781-0.904-5.805-0.904
	c-10.092,0-18.366,7.853-19.078,17.765H96.811z M144.214,110.73c-9.786,0-17.749-7.96-17.749-17.744s7.962-17.744,17.749-17.744
	c9.787,0,17.748,7.96,17.748,17.744S154,110.73,144.214,110.73z M101.82,86.429h-4.331c-0.51,0-0.922,0.413-0.922,0.922
	c0,0.51,0.412,0.922,0.922,0.922h4.331c0.509,0,0.921-0.412,0.921-0.922C102.741,86.842,102.329,86.429,101.82,86.429z
	 M129.215,89.103v2.035h3.352v8.647h2.705v-13.33h-2.153C132.833,88.491,131.1,89.139,129.215,89.103z M145.652,94.396
	c1.313-0.934,2.381-2.038,2.381-4.035c0-2.609-2.134-4.171-4.572-4.171c-3.2,0-4.933,2.341-4.837,5.387h2.59
	c0-1.409,0.514-3.065,2.114-3.065c1.162,0,2,0.8,2,2.057c-0.02,1.638-1.619,2.457-2.8,3.255c-2.304,1.563-4.19,2.878-4.209,5.963
	h9.791v-2.324h-6.305C142.776,96.091,144.338,95.329,145.652,94.396z M80.965,124.596c0.119,0.014,0.236,0.019,0.353,0.019
	c1.649,0,3.028-1.237,3.206-2.878c0.193-1.769-1.089-3.364-2.858-3.56c-1.797-0.194-3.367,1.103-3.56,2.859
	C77.913,122.803,79.195,124.4,80.965,124.596z M79.023,121.136c0.127-1.172,1.112-2.056,2.29-2.056c0.083,0,0.168,0.004,0.253,0.013
	c1.264,0.14,2.18,1.28,2.042,2.544c-0.137,1.255-1.268,2.189-2.542,2.043C79.801,123.539,78.885,122.398,79.023,121.136z"/>
<path fill="#009EE3" d="M100.034,200.016c-0.002,0-0.003,0-0.006,0c-10.136,0-20.223-1.554-29.979-4.617
	c-52.603-16.513-81.962-72.736-65.447-125.33c13.16-41.9,51.485-70.053,95.372-70.053c10.133,0,20.221,1.554,29.979,4.618
	c52.604,16.513,81.963,72.737,65.447,125.331C182.241,171.865,143.917,200.016,100.034,200.016z M99.973,4.109
	c-42.088,0-78.846,26.999-91.466,67.185c-15.839,50.441,12.318,104.363,62.767,120.201c9.36,2.937,19.035,4.427,28.754,4.429
	c42.088,0.003,78.845-26.997,91.465-67.185c15.84-50.441-12.317-104.364-62.767-120.202C119.364,5.601,109.69,4.109,99.973,4.109z"
	/>
</svg>
