<?xml version="1.0" encoding="utf-8"?>
<!-- Generator: Adobe Illustrator 16.0.0, SVG Export Plug-In . SVG Version: 6.00 Build 0)  -->
<!DOCTYPE svg PUBLIC "-//W3C//DTD SVG 1.1//EN" "http://www.w3.org/Graphics/SVG/1.1/DTD/svg11.dtd">
<svg version="1.1" id="medios_de_pago" xmlns="http://www.w3.org/2000/svg" xmlns:xlink="http://www.w3.org/1999/xlink" x="0px"
	 y="0px" width="200px" height="200px" viewBox="0 0 200 200" enable-background="new 0 0 200 200" xml:space="preserve">
<circle id="bg" fill-rule="evenodd" clip-rule="evenodd" fill="#FFFFFF" cx="100" cy="100" r="99.931"/>
<path id="shape" fill="#009EE3" d="M106.896,23.412l-12.639-0.057c-0.412,0.062-0.701,0.31-0.703,0.697
	c-0.002,0.387,0.31,0.701,0.696,0.702l12.639,0.057h0.004c0.385,0,0.698-0.311,0.699-0.697
	C107.594,23.728,107.282,23.413,106.896,23.412z M100.032,143.604h0.02c2.179,0,3.959-1.771,3.967-3.948
	c0.005-1.059-0.402-2.057-1.148-2.81c-0.747-0.753-1.742-1.168-2.821-1.173c-2.177,0-3.956,1.771-3.965,3.949
	C96.075,141.81,97.847,143.596,100.032,143.604z M100.066,136.597c0.813,0.003,1.577,0.322,2.15,0.9
	c0.572,0.577,0.885,1.342,0.881,2.155c-0.007,1.671-1.373,3.03-3.045,3.03v0.461l-0.015-0.461c-1.678-0.007-3.037-1.378-3.03-3.056
	C97.014,137.956,98.379,136.597,100.066,136.597z M99.999,0C44.859,0,0,44.859,0,100s44.859,100,99.999,100
	C155.14,200,200,155.141,200,100S155.14,0,99.999,0z M35.73,171.119l2.002-4.112l3.526,1.715l1.259,0.613l20.812,10.128l1.259,0.611
	l3.412,1.66l-3.559,7.309C53.805,184.779,44.095,178.686,35.73,171.119z M147.995,115.275c-0.011-0.02-1.052-1.998-0.508-3.792
	c0.271-0.894,0.908-1.612,1.893-2.138c0.514-0.273,1.031-0.413,1.535-0.413c2.695,0,4.63,3.862,4.696,3.983
	c0.09,0.133,9.032,13.451,14.28,24.539c1.907,5.008,1.396,13.027,0.892,17.443l-17.391,9.286l-1.921-1.714
	c-0.13-0.115-0.296-0.177-0.465-0.177c-0.064,0-0.129,0.009-0.192,0.027c-8.606,2.452-17.074-0.333-22.667-7.303
	c-5.523-6.886-13.77-20.424-13.872-21.898c0.028-0.298,0.799-1.46,2.669-1.46c1.702,0,5.363,1.063,10.76,8.179
	c0.146,0.193,0.391,0.278,0.63,0.259c0.241-0.021,0.46-0.183,0.569-0.398c0.114-0.229,0.095-0.502-0.05-0.711l-21.356-30.944
	c-0.023-0.029-2.352-2.876-1.957-5.415c0.163-1.04,0.756-1.876,1.813-2.555c0.833-0.534,1.669-0.806,2.485-0.806
	c2.874,0,4.858,3.334,4.901,3.404l13.952,20.898c0.001,0.003,0.002,0.004,0.005,0.007c0.014,0.02,0.028,0.04,0.044,0.059
	c0.001,0,0.001,0,0.001,0s0,0.001,0.001,0.001c0.008,0.013,0.002,0.003,0.002,0.003s0-0.001,0.002,0.003
	c0.001,0,0.001,0.001,0.001,0.001c0.219,0.249,0.576,0.28,0.868,0.102c0,0,0,0,0,0c0.007-0.004,0.014-0.008,0.021-0.014
	c0,0,0,0,0.001,0c0,0,0-0.001,0.001-0.001c0,0,0,0,0.001,0c0.001-0.001,0.001-0.001,0.001-0.001h0
	c0.002-0.003,0.005-0.005,0.007-0.006c0.312-0.216,0.373-0.676,0.165-0.994c0-0.001,0-0.001,0-0.001
	c-0.001,0-0.001-0.002-0.001-0.002c-0.732-1.115-1.292-2.924-0.887-4.448c0.259-0.974,0.882-1.718,1.851-2.209
	c2.272-1.158,4.856,0.062,6.789,3.198c0.199,0.323,0.621,0.429,0.95,0.237c0.329-0.193,0.442-0.613,0.256-0.946
	c-0.894-1.594-1.171-2.927-0.824-3.957c0.325-0.969,1.208-1.756,2.699-2.407c0.39-0.17,0.787-0.256,1.182-0.256
	c2.728,0,4.913,3.961,4.935,4.001c0.183,0.338,0.605,0.466,0.947,0.281C148.05,116.039,148.177,115.615,147.995,115.275z
	 M62.669,132.082l50.433,0.225c-0.115,0.233-0.199,0.465-0.22,0.681c-0.127,1.357,4.012,8.3,8.199,14.566l-50.18-0.226
	c-0.747-0.003-1.474-0.112-2.186-0.271C70.109,140.97,67.18,135.464,62.669,132.082z M122.342,132.348l0.23,0.002l0.221,0.319
	C122.639,132.552,122.493,132.456,122.342,132.348z M104.243,104.463c-0.463,0.016-0.92,0.037-1.407,0.037l-1.376-0.016l-0.38,6.653
	l-4.413-0.254l0.38-6.642l-0.685-0.078c-4.688-0.508-8.151-1.93-10.294-4.229c-2.262-2.387-3.269-6.067-2.991-10.942l0.048-0.856
	l13.122,0.749l-0.113,1.981c-0.246,4.317,2.116,5.362,4.14,5.479c0.12,0.007,0.237,0.009,0.353,0.009c1.87,0,4.151-0.916,4.4-5.282
	c0.098-1.712-0.185-3.046-0.837-3.963c-0.382-0.549-1.177-1.218-2.502-2.087c-1.545-0.781-4.007-2.084-7.319-3.875
	c-3.232-1.745-5.441-3.268-6.569-4.526c-2.224-2.481-3.23-5.862-2.991-10.05c0.288-5.078,1.659-8.92,4.072-11.421
	c2.394-2.484,5.926-3.745,10.494-3.747l0.685,0.004l0.326-5.745l4.415,0.253l-0.327,5.742l0.688,0.077
	c5.789,0.57,9.785,2.4,11.873,5.437c1.529,2.286,2.223,5.634,2.063,9.954l-12.664-0.721l0.083-1.457
	c0.237-4.193-2.022-5.207-3.96-5.319c-0.12-0.007-0.238-0.01-0.354-0.01c-1.75,0-3.881,0.803-4.099,4.622
	c-0.172,3.004,1.786,5.569,5.82,7.624c6.258,3.145,9.775,4.997,10.439,5.494c3.495,2.854,5.12,6.878,4.831,11.96
	c-0.307,5.371-1.659,9.241-3.983,11.596c-0.961-1.205-2.842-3.044-5.372-3.044c-1.088,0-2.179,0.345-3.241,1.027
	c-1.396,0.896-2.218,2.082-2.44,3.523C104.05,103.111,104.11,103.799,104.243,104.463z M141.515,30.667
	c-0.04-0.007-0.076-0.024-0.118-0.024l-80.267-0.363l0.007-1.672c0.025-5.651,4.644-10.249,10.341-10.249l59.801,0.27
	c2.748,0.012,5.327,1.094,7.262,3.048c1.936,1.953,2.994,4.543,2.981,7.293L141.515,30.667z M141.391,32.042h0.003
	c0.041,0,0.076-0.016,0.115-0.022l-0.353,78.592c-0.36,0.059-0.718,0.148-1.068,0.302c-1.874,0.818-3.008,1.879-3.467,3.243
	c-0.166,0.496-0.236,1.027-0.211,1.593c-1.94-1.604-4.244-1.959-6.267-0.927c-1.32,0.67-2.208,1.741-2.569,3.098
	c-0.104,0.393-0.161,0.791-0.178,1.188l-11.469-17.175c-0.014-0.023-0.072-0.12-0.166-0.265c2.552-2.508,4.03-6.619,4.354-12.297
	c0.307-5.396-1.432-9.678-5.184-12.74c-0.732-0.549-4.198-2.379-10.591-5.59c-3.676-1.874-5.465-4.145-5.316-6.749
	c0.151-2.648,1.304-3.889,3.479-3.743c2.239,0.13,3.25,1.55,3.092,4.345l-0.135,2.379l14.516,0.824l0.022-0.464
	c0.237-4.746-0.502-8.439-2.202-10.98c-2.229-3.242-6.387-5.198-12.354-5.816l0.329-5.79l-6.256-0.357l-0.329,5.79
	c-4.741,0.039-8.431,1.396-10.971,4.031c-2.571,2.664-4.027,6.703-4.329,12.007c-0.254,4.442,0.831,8.049,3.226,10.72
	c1.198,1.336,3.492,2.926,6.817,4.722c3.318,1.795,5.788,3.102,7.321,3.875c1.137,0.751,1.871,1.357,2.184,1.807
	c0.531,0.745,0.757,1.882,0.671,3.379c-0.176,3.104-1.422,4.552-3.779,4.404c-2.366-0.135-3.436-1.607-3.271-4.503l0.167-2.904
	l-14.965-0.853l-0.101,1.776c-0.293,5.139,0.798,9.053,3.24,11.627c2.267,2.434,5.859,3.944,10.679,4.493l-0.382,6.692l6.256,0.359
	l0.381-6.693l0.506,0.005c0.573,0,1.106-0.028,1.646-0.053c0.634,1.947,1.851,3.46,1.901,3.518l15.222,22.059l-1.713-0.008
	c-1.157-0.496-2.146-0.678-2.947-0.678c-1.007,0-1.837,0.267-2.489,0.653l-53.778-0.241l0.008-1.701l2.8-10.262
	c1.044-3.813-0.795-7.855-2.711-9.678l0.349-77.354L141.391,32.042z M62.137,118.341l-3.382,12.391
	c-0.089,0.324,0.065,0.666,0.368,0.813c5.989,2.915,10.877,9.661,7.457,17.584c-0.153,0.355,0.01,0.766,0.365,0.92
	c0.356,0.152,0.767-0.01,0.92-0.365c0.185-0.43,0.335-0.855,0.476-1.279c0.831,0.189,1.68,0.32,2.553,0.324l16.794,0.076
	l-0.816,2.537c-3.01,9.4-4.511,12.681-10.824,15.57l-0.956,0.493c-10.023,4.627-23.072,0.886-29.089-8.339
	c-4.235-6.496-3.453-10.121-0.567-19.647l9.386-30.899c1.204,0.252,3.567,0.771,4.112,0.925
	C60.411,109.854,63.271,114.196,62.137,118.341z M46.25,161.748c2.343,2.859,5.364,5.108,8.729,6.645
	c0.024,0.011,0.048,0.022,0.072,0.033c0.791,0.358,1.602,0.675,2.426,0.953c0.089,0.03,0.178,0.06,0.267,0.089
	c0.794,0.26,1.601,0.481,2.417,0.665c0.113,0.025,0.228,0.048,0.342,0.072c0.814,0.17,1.636,0.309,2.463,0.402
	c0.094,0.011,0.188,0.016,0.283,0.026c0.862,0.087,1.726,0.142,2.592,0.142c0.605,0,1.208-0.048,1.812-0.092l-3.704,7.523
	l-20.813-10.128L46.25,161.748z M99.999,195.906c-12.066,0-23.608-2.262-34.254-6.348l3.819-7.84
	c0.081-0.167,0.093-0.359,0.032-0.534c-0.061-0.176-0.188-0.32-0.355-0.401l-4.036-1.964l4.094-8.317
	c0.886-0.125,1.762-0.303,2.629-0.527c0.302-0.077,0.604-0.155,0.903-0.244c0.298-0.091,0.593-0.184,0.888-0.286
	c0.67-0.23,1.334-0.481,1.983-0.781l0.972-0.5c7.061-3.236,8.637-7.369,11.528-16.396l0.946-2.957l32.878,0.148
	c1.852,2.721,3.653,5.221,5.029,6.937c5.864,7.307,14.74,10.305,23.771,7.874l1.254,1.115l-5.253,2.806
	c-0.34,0.181-0.47,0.604-0.288,0.946l3.135,5.874l-2.539,1.355c-0.34,0.181-0.47,0.604-0.29,0.943l2.767,5.238
	C135.128,190.839,118.145,195.906,99.999,195.906z M150.797,181.294l-2.388-4.521l1.925-1.028l1.235-0.659l18.847-10.06
	C164.639,171.275,158.04,176.751,150.797,181.294z M173.065,162.023l-22.155,11.827l-2.806-5.256l5.091-2.718l1.31-0.7l16.063-8.576
	l1.466-0.783l5.765-3.078l0.989,1.854C176.999,157.165,175.089,159.644,173.065,162.023z M178.703,151.463
	c-0.087-0.164-0.236-0.287-0.414-0.34c-0.175-0.057-0.369-0.037-0.533,0.051l-5.512,2.943c0.516-4.547,0.915-12.011-1.067-17.212
	c-5.313-11.231-14.314-24.637-14.357-24.688c-0.094-0.192-2.337-4.685-5.905-4.685c-0.736,0-1.474,0.194-2.194,0.578
	c-1.327,0.708-2.194,1.709-2.576,2.975c-0.149,0.493-0.21,0.987-0.215,1.463c-0.897-0.894-2.05-1.711-3.375-1.939l0.367-81.635
	c0.015-3.123-1.188-6.065-3.386-8.284c-2.199-2.22-5.129-3.448-8.251-3.462l-59.853-0.27c-6.419,0-11.665,5.223-11.694,11.644
	l-0.011,2.288c-0.003,0.028-0.017,0.054-0.017,0.083s0.013,0.054,0.017,0.082l-0.347,77.068c-0.023-0.009-0.048-0.021-0.071-0.028
	c-0.702-0.196-4.162-0.95-4.844-1.077c-0.351-0.063-0.695,0.143-0.799,0.484l-9.571,31.51c-2.824,9.323-3.879,13.744,0.733,20.819
	c0.15,0.23,0.314,0.447,0.474,0.671l-3.427,6.963l-4.16-2.023c-0.347-0.168-0.767-0.025-0.936,0.322l-2.119,4.353
	C15.874,152.597,4.094,127.654,4.094,100c0-52.884,43.023-95.906,95.905-95.906c52.883,0,95.907,43.022,95.907,95.906
	c0,19.711-5.983,38.049-16.221,53.304L178.703,151.463z"/>
</svg>
