<?xml version="1.0" encoding="utf-8"?>
<!-- Generator: Adobe Illustrator 16.0.0, SVG Export Plug-In . SVG Version: 6.00 Build 0)  -->
<!DOCTYPE svg PUBLIC "-//W3C//DTD SVG 1.1//EN" "http://www.w3.org/Graphics/SVG/1.1/DTD/svg11.dtd">
<svg version="1.1" id="Layer_1" xmlns="http://www.w3.org/2000/svg" xmlns:xlink="http://www.w3.org/1999/xlink" x="0px" y="0px"
	 width="41.833px" height="38.583px" viewBox="-5.167 -3.167 41.833 38.583" enable-background="new -5.167 -3.167 41.833 38.583"
	 xml:space="preserve">
<g>
	
		<image overflow="visible" opacity="0.4" width="51" height="51" xlink:href="11E3E57F.png"  transform="matrix(1 0 0 1 -9.5 -8.5)">
	</image>
	<g>
		<g>
			<g>
				<path fill="#FFFFFF" d="M15.514,1c-8.837,0-16,7.163-16,16s7.163,16,16,16s16-7.163,16-16S24.351,1,15.514,1z M15.514,30
					c-7.181,0-13-5.82-13-13s5.819-13,13-13c7.18,0,13,5.82,13,13S22.693,30,15.514,30z M11.514,10l12,7l-12,7V10z"/>
			</g>
		</g>
	</g>
</g>
</svg>
