<?xml version="1.0" encoding="utf-8"?>
<!-- Generator: Adobe Illustrator 16.0.0, SVG Export Plug-In . SVG Version: 6.00 Build 0)  -->
<!DOCTYPE svg PUBLIC "-//W3C//DTD SVG 1.1//EN" "http://www.w3.org/Graphics/SVG/1.1/DTD/svg11.dtd">
<svg version="1.1" id="Capa_1" xmlns="http://www.w3.org/2000/svg" xmlns:xlink="http://www.w3.org/1999/xlink" x="0px" y="0px"
	 width="34px" height="34px" viewBox="238.992 239 34 34" enable-background="new 238.992 239 34 34" xml:space="preserve">
<path fill="#959595" d="M262.301,255.084h-5.396v-5.395c0-0.505-0.408-0.915-0.913-0.915s-0.915,0.41-0.915,0.915v5.395h-5.395
	c-0.506,0-0.914,0.41-0.914,0.914c0,0.506,0.41,0.914,0.914,0.914h5.395v5.396c0,0.505,0.41,0.913,0.915,0.913
	c0.506,0,0.913-0.407,0.913-0.913v-5.396h5.396c0.506,0,0.913-0.406,0.913-0.914C263.214,255.495,262.807,255.084,262.301,255.084z"
	/>
<path fill="#959595" d="M255.992,273c-9.374,0-17-7.626-17-17s7.626-17,17-17s17,7.626,17,17c0.001,4.534-1.77,8.801-4.984,12.016
	C264.794,271.23,260.526,273,255.992,273z M255.992,242.829c-7.263,0-13.172,5.909-13.172,13.172c0,7.262,5.909,13.17,13.172,13.17
	s13.171-5.908,13.171-13.17C269.163,248.738,263.255,242.829,255.992,242.829z"/>
<path fill="#959595" d="M255.992,240c-8.823,0-16,7.176-16,16c0,8.822,7.177,16,16,16c8.822,0,16.001-7.178,16-16
	C271.992,247.176,264.814,240,255.992,240z M255.992,270.17c-7.815,0-14.172-6.356-14.172-14.17c0-7.814,6.356-14.172,14.172-14.172
	c7.814,0,14.171,6.357,14.171,14.172C270.163,263.814,263.807,270.17,255.992,270.17z"/>
</svg>
